{"title":"The Deep Blue Sea 2011 SCR XViD DTRG","uid":7004013,"size":1328534183,"categoryP":"video","categoryS":"movies","magnet":"?xt=urn:btih:adb68f4a25f27f7f74597b15d4e2f026ce62fa13&amp;dn=The+Deep+Blue+Sea+2011+SCR+XViD+DTRG&amp;tr=udp%3A%2F%2Ftracker.openbittorrent.com%3A80&amp;tr=udp%3A%2F%2Fopen.demonii.com%3A1337&amp;tr=udp%3A%2F%2Ftracker.coppersurfer.tk%3A6969&amp;tr=udp%3A%2F%2Fexodus.desync.com%3A6969","seeders":3,"leechers":0,"uploader":"HeroMaster","files":-1,"time":1328199652,"description":"The Deep Blue Sea 2011 SCR XViD DTRG\n\nFormat : AVI\nFormat/Info : Audio Video Interleave\nFile size : 1.22 GiB\nDuration : 1h 34mn\nOverall bit rate : 1 850 Kbps\nWriting library : VirtualDub build 32842/release\n\nVideo\nID : 0\nFormat : MPEG-4 Visual\nFormat profile : Advanced Simple@L5\nFormat settings, BVOP : 1\nFormat settings, QPel : No\nFormat settings, GMC : No warppoints\nFormat settings, Matrix : Default (H.263)\nMuxing mode : Packed bitstream\nCodec ID : XVID\nCodec ID/Hint : XviD\nDuration : 1h 34mn\nBit rate : 1 712 Kbps\nWidth : 720 pixels\nHeight : 400 pixels\nDisplay aspect ratio : 16:9\nFrame rate : 25.000 fps\nColor space : YUV\nChroma subsampling : 4:2:0\nBit depth : 8 bits\nScan type : Progressive\nCompression mode : Lossy\nBits/(Pixel*Frame) : 0.238\nStream size : 1.13 GiB (93%)\nWriting library : XviD 64\n\nAudio\nID : 1\nFormat : AC-3\nFormat/Info : Audio Coding 3\nMode extension : CM (complete main)\nCodec ID : 2000\nDuration : 1h 34mn\nBit rate mode : Constant\nBit rate : 128 Kbps\nChannel(s) : 2 channels\nChannel positions : Front: L R\nSampling rate : 48.0 KHz\nBit depth : 16 bits\nCompression mode : Lossy\nStream size : 86.4 MiB (7%)\nAlignment : Aligned on interleaves\nInterleave, duration : 40 ms (1.00 video frame)\nInterleave, preload duration : 512 ms\n\n &lt;a href=&quot;\nhttp://www.imdb.com/title/tt1700844/&quot; rel=&quot;nofollow&quot; target=&quot;_NEW&quot;&gt;\nhttp://www.imdb.com/title/tt1700844/&lt;/a&gt;\n\n\nSet 'around 1950', The Deep Blue Sea tells the story of Hester Collyer, the younger wife of High Court judge Sir William Collyer, who has embarked on a passionate affair with Freddie Page, a handsome young RAF pilot troubled by his memories of the war.\n\nThe majority of the film takes place during one day in Hester's flat, a day on which she has decided to commit suicide. Her attempt fails and as she recovers, the story of her affair and her married life is played out in a mosaic of short and sporadic flashbacks. We soon discover the constraints of Hester's comfortable marriage, which is affectionate but without sexual passion.\n\nAs Hester's affair is discovered she leaves her life of comparative luxury and moves into a small dingy London flat with Freddie. Hester's new lover has \nawakened her sexuality, but the reckless, thrill-seeking Freddie can never \ngive her the love and stability that her husband gave. Yet to return to a life without passion would be unbearable. The film takes its title from h\n\n\nSource Used\n\nThanks mate :-)\n\n\nNice little scr here for all to enjoy ...Typical scr quality just cropped ,\nresized and few more blah blah blah filters.\n\n\nPoster:\n\n &lt;a href=&quot;\nhttp://i.imgur.com/OOJEz.jpg&quot; rel=&quot;nofollow&quot; target=&quot;_NEW&quot;&gt;\nhttp://i.imgur.com/OOJEz.jpg&lt;/a&gt;\n\n\nScreens:\n\n &lt;a href=&quot;\nhttp://i.imgur.com/RcBRt.png&quot; rel=&quot;nofollow&quot; target=&quot;_NEW&quot;&gt;\nhttp://i.imgur.com/RcBRt.png&lt;/a&gt;\n\n &lt;a href=&quot;\nhttp://i.imgur.com/9qPxZ.png&quot; rel=&quot;nofollow&quot; target=&quot;_NEW&quot;&gt;\nhttp://i.imgur.com/9qPxZ.png&lt;/a&gt;\n\n\nENJOY!","torrent":{"xt":"urn:btih:adb68f4a25f27f7f74597b15d4e2f026ce62fa13","amp;dn":"The+Deep+Blue+Sea+2011+SCR+XViD+DTRG","amp;tr":["udp%3A%2F%2Ftracker.openbittorrent.com%3A80","udp%3A%2F%2Fopen.demonii.com%3A1337","udp%3A%2F%2Ftracker.coppersurfer.tk%3A6969","udp%3A%2F%2Fexodus.desync.com%3A6969"],"infoHash":"adb68f4a25f27f7f74597b15d4e2f026ce62fa13","infoHashBuffer":{"type":"Buffer","data":[173,182,143,74,37,242,127,127,116,89,123,21,212,226,240,38,206,98,250,19]},"announce":[],"urlList":[]}}